PathFileType	4	(X/Y/Z)	s09c0203.trc
DataRate	CameraRate	NumFrames	NumMarkers	Units	OrigDataRate	OrigDataStartFrame	OrigNumFrames
200	200	5	50	mm	200	250	2000
Frame#	Time	racr			lacr			c7			jug			rlel			rdr			llel			ldr			s2			lic			ric			lasi			rasi			rpsi			lpsi			rgt			lgt			rth1			rth2			rth3			rth4			rlfc			rmfc			rsh1			rsh2			rsh3			rsh4			rlmal			rmmal			rcal			rtoe			rmt5			lth1			lth2			lth4			lth3			llfc			lmfc			llmal			lmmal			lcal			lmt5			lsh1			lsh2			lsh3			lsh4			ltoe			SBIKE			LBIKE			RBIKE			
		X1	Y1	Z1	X2	Y2	Z2	X3	Y3	Z3	X4	Y4	Z4	X5	Y5	Z5	X6	Y6	Z6	X7	Y7	Z7	X8	Y8	Z8	X9	Y9	Z9	X10	Y10	Z10	X11	Y11	Z11	X12	Y12	Z12	X13	Y13	Z13	X14	Y14	Z14	X15	Y15	Z15	X16	Y16	Z16	X17	Y17	Z17	X18	Y18	Z18	X19	Y19	Z19	X20	Y20	Z20	X21	Y21	Z21	X22	Y22	Z22	X23	Y23	Z23	X24	Y24	Z24	X25	Y25	Z25	X26	Y26	Z26	X27	Y27	Z27	X28	Y28	Z28	X29	Y29	Z29	X30	Y30	Z30	X31	Y31	Z31	X32	Y32	Z32	X33	Y33	Z33	X34	Y34	Z34	X35	Y35	Z35	X36	Y36	Z36	X37	Y37	Z37	X38	Y38	Z38	X39	Y39	Z39	X40	Y40	Z40	X41	Y41	Z41	X42	Y42	Z42	X43	Y43	Z43	X44	Y44	Z44	X45	Y45	Z45	X46	Y46	Z46	X47	Y47	Z47	X48	Y48	Z48	X49	Y49	Z49	X50	Y50	Z50	
250	1.2500	505.192305	1297.359391	-97.796729	510.284404	1285.390796	-411.185678	455.892609	1309.944749	-225.233415	477.349638	1179.092314	-252.039581	501.082383	1063.015099	22.456528	687.963199	911.803065	-48.336880	455.749877	1027.750426	-526.709575	671.883403	909.535984	-460.990897	1.936801	1119.246347	-237.963309	140.370560	1120.291596	-384.368718	162.703031	1111.861463	-91.836961	186.237221	1066.185549	-367.210161	202.310681	1055.175819	-115.301012	43.263994	1147.884863	-173.936253	34.475877	1159.300381	-282.241348	128.630493	972.412581	-46.746004	99.882917	1011.110527	-433.366663	212.174150	861.500604	-48.165879	279.659232	806.180296	-55.602299	306.670370	721.856131	-61.988520	304.952063	823.142077	-77.235336	339.662779	621.640848	-91.482449	322.614769	608.117153	-188.737350	255.495996	556.740797	-64.827058	215.193951	477.641975	-79.191804	140.879639	431.123180	-81.128855	235.984153	463.942244	-110.629405	70.713063	357.473876	-84.958546	79.521798	368.906177	-163.788828	-14.315074	354.725376	-124.653033	226.331563	244.773503	-123.775813	142.421210	262.030821	-60.600262	219.688590	946.108037	-438.504514	304.943638	941.596301	-436.322748	317.594279	974.039757	-419.901098	380.340629	891.779276	-440.177206	469.188008	831.358051	-426.312432	494.211031	825.075670	-327.547135	374.121524	488.821720	-409.108616	389.603805	493.669741	-338.156590	298.860768	465.726638	-368.655538	453.509957	383.357835	-433.962681	445.968042	733.342431	-442.215175	445.520391	647.066533	-428.033086	399.489916	571.199999	-420.444283	471.621305	644.518720	-398.791504	545.589358	382.977357	-368.424264	-64.894316	851.072909	-240.696100	21.163890	83.981464	-442.352492	21.184683	84.079786	-43.927529	
251	1.2550	505.193116	1297.338534	-97.841740	510.314238	1285.397220	-411.152997	455.901535	1309.929341	-225.192772	477.383772	1179.081419	-252.000389	501.065896	1063.007700	22.476775	687.955879	911.805904	-48.349753	455.789073	1027.774283	-526.739035	671.915718	909.509629	-461.064677	1.935939	1119.256971	-237.961488	140.391811	1120.291014	-384.356410	162.723820	1111.856904	-91.855086	186.247904	1066.179070	-367.214445	202.291490	1055.149940	-115.353618	43.267021	1147.901350	-173.932902	34.476843	1159.304282	-282.243829	128.630989	972.418273	-46.765830	99.877472	1011.142935	-433.393534	212.143357	861.489473	-48.202181	279.655576	806.174762	-55.619621	306.663362	721.858562	-62.019397	304.948757	823.129499	-77.290286	339.640639	621.631165	-91.525656	322.622155	608.117640	-188.738157	255.500530	556.743716	-64.831885	215.236264	477.660501	-79.191106	140.866580	431.099296	-81.136969	236.017250	463.953566	-110.629663	70.710297	357.449406	-84.969523	79.474332	368.904689	-163.798944	-14.308055	354.701677	-124.660551	226.313581	244.736026	-123.796187	142.427064	261.987454	-60.627275	219.672363	946.110308	-438.525522	304.931950	941.608812	-436.323331	317.591073	974.044100	-419.896897	380.337831	891.794780	-440.203183	469.178886	831.403932	-426.320293	494.212312	825.092699	-327.626275	374.097424	488.853952	-409.132564	389.588713	493.667945	-338.194434	298.832537	465.761136	-368.650227	453.493932	383.371492	-433.955882	445.957361	733.371792	-442.213995	445.524024	647.140553	-428.197899	399.474265	571.227497	-420.456773	471.694425	644.198307	-398.386285	545.590152	382.999598	-368.427001	-64.894057	851.076939	-240.695392	21.159834	83.980314	-442.364789	21.147257	84.057520	-43.942220	
252	1.2600	505.180682	1297.317919	-97.888366	510.345821	1285.408345	-411.145748	455.908407	1309.929431	-225.206442	477.403312	1179.085516	-252.023554	501.064828	1063.008431	22.476121	687.958443	911.816950	-48.350296	455.826588	1027.795587	-526.764522	671.921539	909.503693	-461.123865	1.939815	1119.263553	-237.966018	140.399749	1120.291478	-384.366936	162.712434	1111.859148	-91.887665	186.247827	1066.165036	-367.212551	202.269954	1055.144419	-115.418684	43.294925	1147.920616	-173.941954	34.482445	1159.306248	-282.238308	128.622315	972.422552	-46.789388	99.877654	1011.158137	-433.391769	212.154354	861.491419	-48.231406	279.625316	806.175594	-55.655912	306.657607	721.869226	-62.053115	304.893197	823.131807	-77.321562	339.610291	621.636434	-91.569961	322.626732	608.110807	-188.737056	255.486076	556.768120	-64.862441	215.226907	477.648253	-79.182346	140.822146	431.093132	-81.176453	236.017106	463.935748	-110.654287	70.716083	357.402530	-84.996230	79.436426	368.866497	-163.831524	-14.300976	354.686419	-124.686514	226.294695	244.672292	-123.848087	142.408857	261.938369	-60.659349	219.671890	946.142044	-438.526145	304.940770	941.620894	-436.324607	317.591438	974.061383	-419.892573	380.338048	891.815324	-440.213698	469.190642	831.420798	-426.337875	494.174106	825.082732	-327.713211	374.068831	488.889253	-409.135891	389.563464	493.680699	-338.248367	298.813384	465.783464	-368.681078	453.488836	383.406434	-433.956118	445.940609	733.384044	-442.220805	445.522717	647.159320	-428.211767	399.462761	571.240739	-420.458059	471.678688	644.231631	-398.413437	545.581056	383.022591	-368.421167	-64.894443	851.078996	-240.703224	21.145721	83.997237	-442.384304	21.138916	84.066960	-43.957542	
253	1.2650	505.184696	1297.313550	-97.930087	510.376974	1285.419242	-411.131631	455.912403	1309.894165	-225.201262	477.424226	1179.058971	-252.047395	501.045197	1062.992123	22.497502	687.953629	911.819708	-48.371697	455.872437	1027.831041	-526.793944	671.935175	909.491389	-461.192558	1.922558	1119.279059	-237.964458	140.401444	1120.299042	-384.368815	162.714264	1111.861501	-91.926114	186.258179	1066.169389	-367.230410	202.239694	1055.153863	-115.452119	43.296443	1147.928921	-173.940279	34.511864	1159.342718	-282.250619	128.620957	972.447608	-46.828307	99.881282	1011.176608	-433.401454	212.131310	861.510752	-48.264658	279.634698	806.186383	-55.688321	306.638822	721.860477	-62.088441	304.898458	823.130697	-77.352747	339.564229	621.630273	-91.621195	322.626831	608.103133	-188.756051	255.473977	556.718765	-64.905526	215.256118	477.649713	-79.197429	140.832057	431.077243	-81.198088	236.037126	463.929399	-110.654608	70.729034	357.393062	-85.026164	79.418277	368.872776	-163.835116	-14.282565	354.659646	-124.703451	226.289482	244.618077	-123.861513	142.414086	261.892102	-60.686843	219.670577	946.132344	-438.524231	304.927811	941.644752	-436.353567	317.576897	974.080937	-419.935776	380.349951	891.830881	-440.216720	469.178051	831.435003	-426.370964	494.178533	825.065749	-327.798925	374.036489	488.913659	-409.152775	389.522763	493.714124	-338.271165	298.778701	465.842670	-368.640762	453.477237	383.444994	-433.948979	445.933994	733.395046	-442.240639	445.507959	647.174133	-428.246200	399.452514	571.255406	-420.476377	471.675887	644.241175	-398.429909	545.552618	383.062847	-368.433021	-64.886671	851.072358	-240.696843	21.143855	83.984106	-442.397854	21.125622	84.070967	-43.979811	
254	1.2700	505.165350	1297.313048	-97.936083	510.408243	1285.417970	-411.100885	455.918993	1309.912361	-225.198098	477.422880	1179.074859	-252.039117	501.022490	1062.986395	22.501684	687.960405	911.812561	-48.374158	455.910780	1027.854029	-526.830177	671.982632	909.485450	-461.279532	1.935163	1119.285097	-237.992940	140.416887	1120.304652	-384.371355	162.729991	1111.867421	-91.952299	186.259186	1066.148635	-367.231399	202.249011	1055.140770	-115.518423	43.325273	1147.944237	-173.968487	34.513274	1159.343295	-282.265115	128.627098	972.448295	-46.847891	99.874837	1011.184105	-433.405929	212.133314	861.505044	-48.278160	279.623900	806.186346	-55.704262	306.643833	721.856833	-62.107005	304.903170	823.140568	-77.386329	339.536622	621.619279	-91.650844	322.628976	608.106558	-188.779252	255.471494	556.760243	-64.916700	215.239945	477.629471	-79.201493	140.828828	431.073272	-81.213003	236.026505	463.914052	-110.653066	70.751060	357.324868	-85.046711	79.416315	368.859754	-163.831028	-14.272313	354.658773	-124.724747	226.303960	244.567994	-123.895755	142.420257	261.860630	-60.703282	219.675467	946.137310	-438.541239	304.927756	941.653625	-436.370037	317.576412	974.089280	-419.943638	380.339773	891.856731	-440.255755	469.174830	831.453715	-426.408606	494.162031	825.109520	-327.821463	374.007230	488.949621	-409.173622	389.502451	493.721065	-338.304544	298.735431	465.859034	-368.650948	453.454261	383.475274	-433.959555	445.917674	733.408370	-442.258925	445.469942	647.206314	-428.265881	399.421601	571.281644	-420.479593	471.645817	644.287438	-398.483372	545.526616	383.109943	-368.429538	-64.888841	851.091618	-240.708531	21.137302	84.007604	-442.394615	21.115532	84.063522	-43.979466	
